<svg xmlns="http://www.w3.org/2000/svg" width="30" height="30" viewBox="0 0 30 30"><defs><style>.a{fill:none;}.b{fill:#fff;stroke:#fff;stroke-width:0.5px;}</style></defs><g transform="translate(-245.81 -724.373)"><rect class="a" width="30" height="30" transform="translate(245.81 724.373)"/><g transform="translate(252.671 729.722)"><path class="b" d="M89.079,9.039a4.619,4.619,0,0,0,4.7-4.52,4.707,4.707,0,0,0-9.407,0,4.619,4.619,0,0,0,4.7,4.52Zm0-7.842a3.352,3.352,0,0,1,3.552,3.323,3.46,3.46,0,0,1-3.552,3.217,3.4,3.4,0,0,1-3.427-3.215A3.31,3.31,0,0,1,89.079,1.2Z" transform="translate(-80.482 0.01)"/><path class="b" d="M44.221,180c-4.74,0-8.6,3.343-8.6,7.457v.9H52.817v-.9C52.817,183.343,48.961,180,44.221,180Zm-7.259,7.107c-.053-3.373,4.027-6.09,7.259-6.09s7.288,2.739,7.368,6.09Z" transform="translate(-35.625 -169.249)"/></g></g></svg>