<svg xmlns="http://www.w3.org/2000/svg" width="20.614" height="21.94" viewBox="0 0 20.614 21.94"><defs><style>.a{fill:none;stroke:#fff;stroke-width:1.3px;}</style></defs><g transform="translate(-0.117 0.65)"><path class="a" d="M19.2,12.384l-1.032-.6a1.77,1.77,0,0,1,0-3.01l1.032-.6a1.634,1.634,0,0,0,.6-2.322l-.86-1.462a1.634,1.634,0,0,0-2.322-.6l-1.032.6a1.716,1.716,0,0,1-2.58-1.462V1.72A1.725,1.725,0,0,0,11.291,0H9.571a1.725,1.725,0,0,0-1.72,1.72V2.838A1.716,1.716,0,0,1,5.271,4.3L4.239,3.784a1.667,1.667,0,0,0-2.322.6l-.86,1.462a1.875,1.875,0,0,0,.6,2.408l1.032.6a1.694,1.694,0,0,1,0,2.924l-1.032.6a1.634,1.634,0,0,0-.6,2.322l.86,1.462a1.634,1.634,0,0,0,2.322.6l1.032-.516a1.716,1.716,0,0,1,2.58,1.462v1.2a1.725,1.725,0,0,0,1.72,1.72h1.72a1.725,1.725,0,0,0,1.72-1.72V17.8a1.716,1.716,0,0,1,2.58-1.462l1.032.6a1.667,1.667,0,0,0,2.322-.6l.86-1.462A1.962,1.962,0,0,0,19.2,12.384ZM10.431,13.76a3.44,3.44,0,1,1,3.44-3.44A3.45,3.45,0,0,1,10.431,13.76Z" transform="translate(0 0)"/></g></svg>