<svg xmlns="http://www.w3.org/2000/svg" width="24.29" height="24.29" viewBox="0 0 24.29 24.29"><defs><style>.a{fill:#fff;stroke:#6ccccc;}</style></defs><path class="a" d="M23.853,12.186A11.646,11.646,0,0,1,4.9,21.274,1.126,1.126,0,0,1,4.813,19.6l.529-.529a1.129,1.129,0,0,1,1.5-.093A8.64,8.64,0,1,0,6.288,5.912L8.671,8.3A.751.751,0,0,1,8.14,9.578H1.314a.751.751,0,0,1-.751-.751V2a.751.751,0,0,1,1.283-.531L4.163,3.788a11.645,11.645,0,0,1,19.689,8.4Zm-8.495,3.7.461-.593a1.127,1.127,0,0,0-.2-1.581L13.71,12.224v-4.9A1.127,1.127,0,0,0,12.583,6.2h-.751a1.127,1.127,0,0,0-1.127,1.127v6.37l3.071,2.389A1.127,1.127,0,0,0,15.358,15.885Z" transform="translate(-0.063 -0.063)"/></svg>