<svg xmlns="http://www.w3.org/2000/svg" width="17.821" height="23.356" viewBox="0 0 17.821 23.356"><defs><style>.a{fill:#fff;stroke:#fff;stroke-width:0.3px;}</style></defs><g transform="translate(-61.645 0.267)"><g transform="translate(61.857 -0.001)"><path class="a" d="M78.2,12.721,74.771,7.351a1.523,1.523,0,0,0-.142-2.764L75.667.96a.448.448,0,0,0-.114-.44,1.772,1.772,0,0,0-2.5,0,.868.868,0,0,1-.618.256.869.869,0,0,1-.619-.257l0,0a1.774,1.774,0,0,0-2.5,0L69.3.525a.876.876,0,0,1-1.234,0l0,0a1.772,1.772,0,0,0-2.5,0,.448.448,0,0,0-.114.44l1.04,3.627a1.523,1.523,0,0,0-.144,2.765l-3.425,5.369a6.645,6.645,0,0,0,5.6,10.218h4.079a6.645,6.645,0,0,0,5.6-10.218ZM67.427,1.154l0,0a1.774,1.774,0,0,0,2.5,0l.013-.013a.876.876,0,0,1,1.235,0l0,0a1.772,1.772,0,0,0,2.5,0,.876.876,0,0,1,1.039-.148l-.993,3.474H67.384l-1-3.474A.876.876,0,0,1,67.427,1.154Zm10.208,17.9a5.674,5.674,0,0,1-5.041,2.985H68.516a5.749,5.749,0,0,1-4.846-8.84l3.621-5.677h3.267c.247,0,0-.2,0-.448s.247-.448,0-.448H67.045a.627.627,0,1,1,0-1.255h7.02a.627.627,0,0,1,0,1.255H70.557c-.247,0,0,.2,0,.448s-.247.448,0,.448h3.262L77.441,13.2A5.674,5.674,0,0,1,77.635,19.058Z" transform="translate(-61.857 0.001)"/><path class="a" d="M211.5,241.94c-.112-.04-.227-.081-.342-.124v-2.031a1.84,1.84,0,0,1,.515.241.448.448,0,0,0,.539-.716,2.737,2.737,0,0,0-1.054-.446v-.446a.448.448,0,0,0-.9,0v.443a2.323,2.323,0,0,0-.231.056,1.794,1.794,0,0,0-1.23,1.407,1.582,1.582,0,0,0,.518,1.56,4.313,4.313,0,0,0,.943.536v2.6a1.791,1.791,0,0,1-.982-.36.448.448,0,1,0-.491.75,2.645,2.645,0,0,0,1.473.507v.463a.448.448,0,0,0,.9,0v-.51a2.16,2.16,0,0,0,1.647-1.76A1.9,1.9,0,0,0,211.5,241.94Zm-1.628-.761a.7.7,0,0,1-.191-.688.912.912,0,0,1,.58-.706v1.641A2.683,2.683,0,0,1,209.87,241.179Zm2.049,2.781a1.285,1.285,0,0,1-.763.971V242.77l.043.016A1.014,1.014,0,0,1,211.919,243.96Z" transform="translate(-202.01 -227.307)"/><path class="a" d="M246.433,148.865a.448.448,0,1,0-.317-.131A.452.452,0,0,0,246.433,148.865Z" transform="translate(-237.735 -141.339)"/></g></g></svg>