<svg xmlns="http://www.w3.org/2000/svg" xmlns:xlink="http://www.w3.org/1999/xlink" width="416.135" height="380.525" viewBox="0 0 416.135 380.525"><defs><style>.a,.aa,.d,.k,.p,.q,.t,.w{fill:none;}.ac,.b,.l{fill:#fff;}.b,.d{stroke:#153556;}.aa,.b,.d,.k,.p,.q,.u,.w{stroke-miterlimit:10;}.c{fill:#d6e7f2;}.e{clip-path:url(#a);}.f{fill:#101e35;}.g,.v{fill:#c7daea;}.h{fill:#ffaf99;}.i{fill:#f29a86;}.j{fill:#0e263f;}.k,.q,.w{stroke:#0e263f;}.k,.p,.t,.v{stroke-linecap:round;}.k{stroke-width:3px;}.m,.z{fill:#c1c1c1;}.m,.y{mix-blend-mode:color-burn;}.m,.y,.z{isolation:isolate;}.n{fill:#95b3c6;}.o,.u{fill:#ededed;}.p,.u{stroke:#ededed;}.r{fill:#ffc215;}.s{fill:#799ebc;}.t{stroke:#000;stroke-width:1.407px;}.t,.v{stroke-linejoin:round;}.w{stroke-width:0.5px;}.x{fill:#4fc9b8;}.y{fill:#9b9b9b;}.z{opacity:0.5;mix-blend-mode:multiply;}.aa{stroke:#95b3c6;}.ab,.ac{stroke:none;}</style><clipPath id="a"><rect class="a" width="225.041" height="290.677"/></clipPath></defs><g transform="translate(-1213 -2920.851)"><g transform="translate(1179.667 2882.351)"><g transform="translate(224.426 38.5)"><g transform="translate(35.589 27.846)"><rect class="b" width="144.487" height="291.859" rx="10"/><rect class="c" width="133.83" height="250.353" transform="translate(5.328 12.218)"/><path class="d" d="M354.235,358.674a7.665,7.665,0,1,1-7.665-7.665A7.666,7.666,0,0,1,354.235,358.674Z" transform="translate(-274.326 -80.982)"/></g><g class="e"><g transform="translate(11.877 19.704)"><path class="f" d="M344.564,67.546c13.11-9.81,24.574.079,27.042,2.151,9.774,8.2,13.764,24.391,3.956,39.043-4,5.978-13.346,13.61-5,19.952,9.424,7.161,13.847,18.479,6.222,36.75-7.453,17.865-32.22-15.194-32.22-15.194Z" transform="translate(-250.88 -59.364)"/><path class="g" d="M330.813,150.288l25.571-1.466L386.511,161.7l.767,67.619c-2.166,30.775-11.116,47.694-3.616,79.645,1.442,6.136,3.981,9.745,1.592,19.63-1.632,6.751-77.4,13.072-76.306,5.493-3.062-1.2-6.892-12.086-.893-21.284,1.07-13.408,2.085-32.424,3.1-45.862,3.267-43.279,7.063-29.643,4.908-80.307-.054-1.3,0-31.218,0-31.218A92.4,92.4,0,0,1,330.813,150.288Z" transform="translate(-249.022 -63.371)"/><path class="f" d="M350.274,66.007c-4.425-5.577-24.286-12.863-38.6,1.731-16.033,16.348-16.086,61.56,22.125,67.323Z" transform="translate(-248.864 -59.172)"/><path class="h" d="M363.651,112.995c-2.03,12.848-7.585,24.861-3.71,34.221l5.994,2.95c.214,2.877-1.353,7.442-4.486,10.322a24.434,24.434,0,0,1-12.076,6.205c-1.861.339-3.159,14.521-4.935,14.353-1.528-.145-3.554-14.574-4.949-15.081-6.182-2.245-10.738-7.985-10.795-16.7l3.232-.846s.45-1.863-.447-10.012c-.969-8.8,6.559-29.454,6.559-29.454Z" transform="translate(-250.137 -61.504)"/><path class="i" d="M331.618,138.707c4.739.034,20.513-11.265,21.44-14.286s3.209-9.1,3.209-9.1.719,14.295-5.1,21.488c-6.256,7.744-18.995,10.322-18.995,10.322S331.782,140.378,331.618,138.707Z" transform="translate(-250.274 -61.802)"/><path class="h" d="M367.63,95.194a26.756,26.756,0,0,1-28.3,25.114c-14.754-.881-26.28-15-25.4-29.76.19-3.182.247-8.358,1.439-11.127,7.214-16.8,33.794-19.916,47.5-4.283C367.647,80.6,368.022,88.552,367.63,95.194Z" transform="translate(-249.443 -59.443)"/><path class="h" d="M314.353,98.168c-.009,14.134,6.329,38.037,18.794,40.9,5.848,1.341,20.664-8.006,21.99-17.8s2.716-20.492,2.716-20.492" transform="translate(-249.465 -60.998)"/><path class="j" d="M337.435,107.313c.093,1.957,1.363,3.49,2.822,3.416s2.56-1.728,2.464-3.69-1.366-3.5-2.826-3.42S337.334,105.344,337.435,107.313Z" transform="translate(-250.546 -61.254)"/><path class="j" d="M316.721,108.484c.1,1.96,1.363,3.493,2.822,3.421s2.556-1.731,2.456-3.692-1.358-3.5-2.818-3.421S316.62,106.515,316.721,108.484Z" transform="translate(-249.576 -61.308)"/><path class="i" d="M324.214,122.2c.488.233,3.12,1.156,3.97,1s4.413-1.574,4.6-2S323.286,121.764,324.214,122.2Z" transform="translate(-249.924 -62.072)"/><path class="k" d="M335.49,97.158s7.236-2.822,12.256,1.55" transform="translate(-250.455 -60.909)"/><path class="k" d="M321.146,97.988c-1.032-.173-5.457-.173-6.662,2.715" transform="translate(-249.471 -60.987)"/><path class="l" d="M323.919,127.634c.387-.77,13.248-1.3,14.152-.93s-3.809,4.846-6.7,5.065C329.117,131.939,323.459,128.551,323.919,127.634Z" transform="translate(-249.912 -62.329)"/><path class="m" d="M323.413,152.991c-.215,3.21-.021,54.507,15.448,77.029-.088.208,3.951,81.373,3.951,81.373l-4.494,1.128L334.8,229.829a121.642,121.642,0,0,1-10.61-39.247C321.849,167.528,323.413,152.991,323.413,152.991Z" transform="translate(-249.865 -63.566)"/><path class="m" d="M372.831,155.223c-1.51,29.052-12.989,58.569-21.609,75.3l2.592,49.344h4.551l-2.786-48.574a328.533,328.533,0,0,0,12.883-33.634C375.119,176.1,372.831,155.223,372.831,155.223Z" transform="translate(-251.192 -63.67)"/><rect class="n" width="46.929" height="44.117" transform="translate(73.137 238.649)"/><path class="j" d="M277.1,226.854c7.257-5.541,29.747-22.311,29.747-22.311,2.545-7.653,4.82-48.193-.319-45.448-10.2,5.444-56.264,61.074-56.264,61.074-5.989,8.479-5.22,15.51,2.217,22.641s64.2,38.964,64.2,38.964l10.824-16.8Z" transform="translate(-246.277 -63.846)"/><path class="j" d="M322.472,152.991s-4.133,46.453,11.388,76.838l5.022,118.683s-24.233.924-34.087-10.617c-3.929-4.6-.865-24.344-.428-45.415.911-43.8.769-102.449.769-102.449l4.041-31.215A132.462,132.462,0,0,1,322.472,152.991Z" transform="translate(-248.925 -63.566)"/><path class="j" d="M373.045,155.223c2.288,44.529-16.57,69.922-17.147,76.845s1.41,117.509,1.41,117.509S378.853,353.77,388.654,338c8.463-13.617.057-42.359,1.263-85.949C390.6,227.2,388.895,162,388.895,162Z" transform="translate(-251.406 -63.67)"/><g transform="translate(52.14 175.741)"><path class="o" d="M349.368,243.548l14.136,67.79-47.423,9.735-14.133-67.788Z" transform="translate(-301.024 -243.548)"/><path class="l" d="M348.4,243.8l14.136,67.789-47.426,9.731-14.135-67.789Z" transform="translate(-300.979 -243.56)"/><line class="p" y1="2.473" x2="12.035" transform="translate(5.83 8.069)"/><line class="p" y1="2.472" x2="12.036" transform="translate(30.169 3.223)"/></g><path class="c" d="M306.712,268.714l10.193,50.772,42.282-8.353-5.368-26.464S332.349,292.026,306.712,268.714Z" transform="translate(-249.107 -68.986)"/><path class="h" d="M359.928,287.691a20.252,20.252,0,0,1-4.912,1.85c-4.01,1.023-11.389-.416-16.065.066-4.976.512-.164,15.453,6.145,18.059,11.527,2.157,22.394-4.079,27.272-5.045,3.239-.645,11.591-2.907,11.591-2.907l7.2-20.718s-15.072,6.1-16.493,5.184c-6.225-4.306-12.384-2.941-16.081-2.941" transform="translate(-250.521 -69.467)"/><path class="j" d="M390,162.329c7.942,5.451,71.393,70.3,67.517,81.291-3,8.516-14.693,18.916-43.4,38.783-12.375,8.565-28.287,15.649-30.07,15.793-5.229.433-6.169-19.914-2.143-23.02,4.467-3.45,38.027-29.542,45.034-35.188-5.221-3.186-44.09-38.621-44.09-38.621" transform="translate(-252.512 -64.003)"/><path class="i" d="M378.847,284.212s-3.813,2.442-2.123,18.029l4.2-1.038s-2.722-10.078-1.477-17.144Z" transform="translate(-252.366 -69.704)"/><path class="i" d="M337.119,296c5.392,1.9,16.77,1.358,20.586-.044" transform="translate(-250.531 -70.262)"/><path class="i" d="M339.075,301.79a41.2,41.2,0,0,0,17.451-.524" transform="translate(-250.623 -70.51)"/><path class="i" d="M342.041,306.361c4.582,1.156,13.618.235,15.962-.808" transform="translate(-250.762 -70.711)"/><g transform="translate(81.152 97.728)"><path class="a" d="M345.213,184.54c.294.028.574-.34.845-.967l-.848.965Z" transform="translate(-332.062 -162.726)"/><path class="i" d="M331.416,161.7a15.71,15.71,0,0,0,8.2,6.732c1.394.506,3.417,14.913,4.945,15.079l.848-.965h0l-3.931-14.612S335.358,166.114,331.416,161.7Z" transform="translate(-331.416 -161.702)"/></g><path class="q" d="M326.062,110.254c.331,5.222-2.554,9.656-6.441,9.9s-7.3-3.791-7.634-9.013,2.555-9.656,6.443-9.9S325.734,105.031,326.062,110.254Z" transform="translate(-249.353 -61.142)"/><path class="q" d="M349.911,108.728a9.311,9.311,0,1,1-9.51-9.274A9.394,9.394,0,0,1,349.911,108.728Z" transform="translate(-250.259 -61.058)"/><path class="q" d="M325.289,105.457s2.325-1.757,6.468,0" transform="translate(-249.977 -61.303)"/><path class="i" d="M313.744,93.425c5.378-3.09,9.063-9.866,9.063-9.866s3.914,5.717,15.6,6.821a49.856,49.856,0,0,0,12.437-.129l2.789,20.772L352.38,87.673l-18.6-11.846-16,1.731-3.865,13.5S313.6,91.534,313.744,93.425Z" transform="translate(-249.435 -59.952)"/><path class="f" d="M321.367,76.194c4.242,9.809,19.2,12.836,31.372,10.884.323,7,1.349,15.561,1.253,23.351-.025,1.922,1.587,1.635,1.734-.1.134-1.579,2.5-13.419,7.326-13.7s2.56,10.982,2.56,10.982,7.752-17.188,5.4-26.418S353,61.785,334.729,63.272C322.591,64.259,321.367,76.194,321.367,76.194Z" transform="translate(-249.794 -59.357)"/><path class="f" d="M325.229,68.826l-2.843,6.848s-.643,9.635-8.494,15.056C313.892,90.73,309.248,68.653,325.229,68.826Z" transform="translate(-249.414 -59.624)"/><path class="i" d="M369.755,108.115c-.91,4.718-4.965,10.593-8.391,8.546-2.746-1.656-.539-15.888,3.289-16.422C368.772,99.663,370.675,103.4,369.755,108.115Z" transform="translate(-251.609 -61.093)"/><path class="h" d="M360.1,107.613s2.753,1.955,2.625,2.754-3.4,4.2-3.4,4.2" transform="translate(-251.571 -61.441)"/></g></g></g><g transform="translate(33.332 145.815)"><g transform="translate(17.197 37.459)"><path class="h" d="M177.635,323.961c2.938,1.75,9.212,2.992,10.8,4.952s1.552,4.428.22,5.3c0,0-5.781-6.436-8.084-6.833" transform="translate(-57.287 -196.643)"/><path class="o" d="M184.2,423.825s3.352-.714,3.821-.794.468-6.2.468-6.2-1.906-3.5-1.826-11.438-12.572,2.064-12.572,2.064l-.931,12.949L172,423.825s11.879-.1,12.2-.207" transform="translate(-57.024 -200.314)"/><path class="o" d="M213.134,409.244l6.91,10.723,1.351,5.322s11.2-3.609,11.438-3.791-2.4-9.581-2.4-9.581l-5.7-8.868Z" transform="translate(-58.95 -200.347)"/><path class="f" d="M113.182,322.56s63.466.98,70.138,8.009c3.478,3.665,1.138,63.157-.635,73.712-.357,2.127-13.225,2.427-13.225-.119,0-9.651-2.487-45.616-2.939-50.783-.41-4.686-71.524-1.028-71.524-1.028l-9.644-25.593Z" transform="translate(-52.965 -196.577)"/><path class="f" d="M219.829,398.8s-24.688-53.289-35.318-62.2-70.782-14.047-70.782-14.047l-16.685,2.519,5.185,26.627,67.659-.536s33.431,50.391,37.042,54.806C210.385,410.2,221.886,402.626,219.829,398.8Z" transform="translate(-53.513 -196.577)"/><path class="r" d="M116.276,319.428c7.083-.3-15.564-22.614.57-48.634-1.74-16.66-10.636-22.64-20.19-22.123-3.15.171-8.029.58-11.231,1.822-5.641,2.19-9.331,6.142-12.456,9.79-12.142,14.175-10.9,51.853-4.767,71.041,3.129,9.8,17.865,14.426,27.8,9.006C96.81,327.472,109.069,318.469,116.276,319.428Z" transform="translate(-51.95 -193.115)"/><g transform="translate(0 92.709)"><path class="c" d="M166.192,357.464c0-6.455-3.158-12.361-15.519-12.154s-42.054,0-49.057,0S90.7,323.885,85.959,302.667s-24.3-18.328-29.459-1.442c-4.972,16.274,1.368,34.082,5.471,43.465v6.319s36.137-.138,44.175-.138c9.34,0,8.146,6.593,8.146,6.593Z" transform="translate(-51.529 -287.651)"/><path class="s" d="M165.241,360.478s.685-8.468-7.279-8.468H107.668l.825,2.013s8.8-.848,8.281,6.455Z" transform="translate(-54.01 -290.666)"/><path class="c" d="M167.3,433.121h3.5L160.088,352.01h-7Z" transform="translate(-56.138 -290.665)"/><path class="c" d="M84.7,433.121H81.2L91.911,352.01h7.005Z" transform="translate(-52.771 -290.665)"/><path class="s" d="M137.472,433.121h3.5L130.263,352.01h-7Z" transform="translate(-54.741 -290.665)"/><path class="s" d="M54.877,433.121h-3.5L62.085,352.01H69.09Z" transform="translate(-51.374 -290.665)"/><rect class="c" width="93.508" height="2.946" transform="translate(10.443 60.412)"/><path class="s" d="M96.017,347.115S89.3,344.348,81.875,336.6c-9.016-9.4-27.026-11.048-22.992,1.652l3.259,8.381Z" transform="translate(-51.698 -289.594)"/></g><path class="h" d="M74.234,234.6c3.671,3.977,6.632,18.375,6.529,20.318,1.15.828,3.777,1.548,7.325-2.492a14.2,14.2,0,0,1,7.365-4.244,39.4,39.4,0,0,1-2.519-10.095Z" transform="translate(-52.445 -192.458)"/><path class="i" d="M93.691,239.961l-9.314-3.223s-.256,4.977,10.009,6.808Z" transform="translate(-52.92 -192.558)"/><path class="h" d="M94.583,213.788a15.246,15.246,0,1,1-19.813-8.5A15.245,15.245,0,0,1,94.583,213.788Z" transform="translate(-52.02 -191.034)"/><path class="h" d="M94.908,214.259c3.856,8.055,6.44,22.5,1.791,24.092-3.837,1.316-11.921.414-15.227-3.652s-9.366-7.543-9.366-7.543" transform="translate(-52.345 -191.505)"/><path class="h" d="M97.478,220.678s4.782,5.75,4.508,6.626-3.23,1.882-3.23,1.882" transform="translate(-53.533 -191.806)"/><path d="M95.267,222.278c.31.993.033,1.965-.619,2.168s-1.433-.439-1.741-1.435-.032-1.966.619-2.17S94.957,221.282,95.267,222.278Z" transform="translate(-53.313 -191.812)"/><path class="t" d="M93.259,217.211a4.689,4.689,0,0,0-4.344,2.988" transform="translate(-53.132 -191.643)"/><path class="f" d="M221.356,425.639c-.449,5.1,2.33,10.3,2.33,10.3l37.07-10.1a5.491,5.491,0,0,0-1.668-5.565c-3.753-3.14-10.682-2.009-10.682-2.009l-17.954-6.046s-1.2,1.655.448,5.067c1.42,2.939-1.879,5.16-3.987,5.262C222.965,422.738,221.559,423.332,221.356,425.639Z" transform="translate(-59.333 -200.777)"/><g transform="translate(162.902 221.15)"><path class="u" d="M260.438,422.4a5.872,5.872,0,0,1,.362,3.916l-37.07,10.1a23.169,23.169,0,0,1-1.451-3.618Z" transform="translate(-222.28 -422.404)"/></g><path class="f" d="M171.639,425.06c-1.773,4.8-.46,10.552-.46,10.552H209.6a5.49,5.49,0,0,0-.146-5.806c-2.8-4.017-9.779-4.747-9.779-4.747L188.5,414.507s-.789,1.217-.9,5.007c-.123,4.166-5.6,5.546-9.094,4.132C174.842,422.162,172.441,422.889,171.639,425.06Z" transform="translate(-56.963 -200.884)"/><g transform="translate(113.767 230.858)"><path class="u" d="M210.28,432.588a5.855,5.855,0,0,1-.68,3.872H171.18a23.265,23.265,0,0,1-.449-3.872Z" transform="translate(-170.731 -432.588)"/></g><path class="h" d="M145.262,304.8l20.691,12.986a80.781,80.781,0,0,0,9.811,5.28c2.338,1.5,3.058,2.7,4.784,4.227-1.072,1.216-10.469-2.4-17.175-2.894-2.151-1.037-25.688-9.949-25.688-9.949Z" transform="translate(-55.416 -195.746)"/><path class="r" d="M116.983,266.081c2.941,9.984,11.33,22.521,19.843,27.45,1.954,1.131,2.567,2.558,1.685,5.2,1.779-.159,5.378,2.655,6,3.849,1.04,1.986-6.171,10.723-8.013,11.011-2.481.389-7.12-2.466-8.325-3.983-3.828,2.2-7.489.136-10.858-2.093C105,299.364,91.1,287.4,86.291,271.918" transform="translate(-53.009 -193.932)"/><path class="f" d="M94.151,212.634s-1.965-4.4-4.226-4.666c-4.383,3.948-11.891.377-13.951,4.511-1.693,3.406,3.68,4.466,4.978,11.067.452,1.014-1.229,1.614-1.72,1.161s-.716-4.647-3.923-3.146c-1.925.9-1.424,6.121,3.058,7.765,1.18,1.435-3.318,3.456-2.086,8.045-1.676-.874-5.018-4.372-8.716-7.1-6.264-4.621-8.985-13.235-5.448-17.023-2.33-5.914-.421-10.921,11.224-13.989,6.8-1.791,12.965-3.024,16.83-8.381C92.7,187.373,99.608,203.453,94.151,212.634Z" transform="translate(-51.804 -190.387)"/><path class="i" d="M75.177,228.214c1.038,2.234,3.482,3.76,5.425,3.128,1.663-.542-.48-1.429-1.516-3.664s-.066-4.356-2.142-4.1C74.708,223.853,74.142,225.981,75.177,228.214Z" transform="translate(-52.465 -191.941)"/><path class="m" d="M139.548,297.776c-.371.873-7.4,5.4-9.188,8.559s-5.133,3.042-6.584,2.8c-3.574-.6-20.157-10.963-23.576-14.759,0,0,7.5,6.8,14.61,12.308,6.851,5.072,10.485,6.234,14.015,4.246a12.5,12.5,0,0,0,3.616,2.669c3.74,1.687,4.693,2.083,7.089-.45.432-.441,1.751-1.848,1.955-2.162-.746.932-2.746,1.333-2.166.39-4.513,2.583-5.307-5.121-.158-11.324A9.767,9.767,0,0,0,139.548,297.776Z" transform="translate(-53.661 -195.257)"/><path class="i" d="M144.867,309.707c-1.167,1.544-1.737,4.375,4.379,7.076s14.138,6.807,14.138,6.807,4.842.036,12.787,3.6a104.521,104.521,0,0,0-12.706-2.568l-23.81-9.314S141.52,314.386,144.867,309.707Z" transform="translate(-55.509 -195.975)"/></g><line class="d" x2="238.451" transform="translate(0 272.623)"/><g transform="translate(60.728)"><g transform="translate(0 14.829)"><path class="c" d="M107.007,182.082a6.359,6.359,0,0,1-.894-2.394,5.437,5.437,0,0,1,.061-1.974,13.445,13.445,0,0,1,.687-1.989,8.065,8.065,0,0,0,.624-1.935,2.314,2.314,0,0,0-.338-1.551q-1.225-2.07-3.9-.486a2.928,2.928,0,0,0-1.688,2.06,3.3,3.3,0,0,0,.441,2.067c.119.2.222.367.307.49s.139.2.161.24l-3.836,2.269a2.992,2.992,0,0,1-.281-.317,4.671,4.671,0,0,1-.4-.583,6.066,6.066,0,0,1,.243-6.739,10.162,10.162,0,0,1,3.354-2.989,9.3,9.3,0,0,1,5.532-1.577,4.93,4.93,0,0,1,3.888,2.636,6.086,6.086,0,0,1,.865,2.376,5.585,5.585,0,0,1-.1,2.033,17.71,17.71,0,0,1-.744,2.174,13.291,13.291,0,0,0-.74,2.56,3.006,3.006,0,0,0,.458,2l.458.773-3.45,2.041Zm1.516,2.941,3.809-2.252,2.237,3.78-3.809,2.254Z" transform="translate(-97.044 -166.645)"/></g><g transform="translate(17.662)"><path class="c" d="M122.472,168.86a7.653,7.653,0,0,1,.547-3.044A6.58,6.58,0,0,1,124.3,163.8a16.22,16.22,0,0,1,1.943-1.647,9.784,9.784,0,0,0,1.844-1.629,2.786,2.786,0,0,0,.6-1.823q0-2.91-3.76-2.914a3.548,3.548,0,0,0-3.029,1.1,4,4,0,0,0-.817,2.425c0,.286,0,.519.018.7s.019.3.019.349l-5.394,0a3.8,3.8,0,0,1-.1-.5,5.767,5.767,0,0,1-.056-.854,7.341,7.341,0,0,1,4.411-6.866,12.29,12.29,0,0,1,5.337-1.044,11.26,11.26,0,0,1,6.731,1.773,5.962,5.962,0,0,1,2.421,5.144,7.346,7.346,0,0,1-.565,3.007,6.756,6.756,0,0,1-1.36,2.055,21.394,21.394,0,0,1-2.117,1.8,16.288,16.288,0,0,0-2.351,2.21,3.643,3.643,0,0,0-.759,2.368v1.087l-4.852,0Zm-.236,4,5.357.006-.006,5.317-5.355,0Z" transform="translate(-115.574 -151.088)"/></g></g></g><g transform="translate(114.879 97.208)"><g class="v" transform="translate(-123.067 -100.093)"><path class="ab" d="M 266.9774475097656 167.1834869384766 C 265.8203430175781 167.1834869384766 264.7500305175781 166.6564483642578 264.0409545898438 165.7375030517578 L 258.3157043457031 158.3277587890625 L 227.1682739257813 158.3277587890625 C 224.4798583984375 158.3277587890625 221.8661956787109 157.7964172363281 219.3999328613281 156.7484588623047 C 217.0205688476563 155.7374267578125 214.8812255859375 154.2919158935547 213.0413208007813 152.4520721435547 C 211.2013244628906 150.6121368408203 209.7556915283203 148.4727325439453 208.7445678710938 146.09326171875 C 207.6964569091797 143.6266784667969 207.1650085449219 141.0125579833984 207.1650085449219 138.3235321044922 L 207.1650085449219 119.0991287231445 C 207.1650085449219 116.4094467163086 207.6964416503906 113.7948455810547 208.7445678710938 111.3279647827148 C 209.7556457519531 108.9482116699219 211.2012786865234 106.8086090087891 213.0413055419922 104.9685974121094 C 214.8811798095703 103.1287307739258 217.0205230712891 101.683219909668 219.3999481201172 100.6722106933594 C 221.8661499023438 99.62432861328125 224.4797973632813 99.09300994873047 227.1682739257813 99.09300994873047 L 269.5489196777344 99.09300994873047 C 272.2376098632813 99.09300994873047 274.8514404296875 99.62432861328125 277.3178100585938 100.6721954345703 C 279.6973266601563 101.6831970214844 281.8367919921875 103.1287078857422 283.6767272949219 104.9685745239258 C 285.5168151855469 106.8085861206055 286.9624633789063 108.9481887817383 287.9736022949219 111.3279647827148 C 289.021728515625 113.7948303222656 289.5531616210938 116.4094314575195 289.5531616210938 119.0991287231445 L 289.5531616210938 138.3235321044922 C 289.5531616210938 140.7162780761719 289.1295166015625 143.0596923828125 288.2939758300781 145.2886810302734 C 287.4876708984375 147.439697265625 286.3212280273438 149.4258270263672 284.8270263671875 151.19189453125 C 281.9332580566406 154.6122131347656 277.9740600585938 156.9766235351563 273.6321411132813 157.8890228271484 L 270.369384765625 165.0111999511719 C 269.753173828125 166.3515930175781 268.4536743164063 167.1834869384766 266.9774475097656 167.1834869384766 Z"/><path class="ac" d="M 227.1682739257813 100.093017578125 C 216.7196655273438 100.093017578125 208.1650085449219 108.6448059082031 208.1650085449219 119.0991363525391 L 208.1650085449219 138.3235321044922 C 208.1650085449219 148.7750244140625 216.7196655273438 157.3277587890625 227.1682739257813 157.3277587890625 L 258.8067626953125 157.3277587890625 L 264.8326416015625 165.1265869140625 C 265.3839111328125 165.8410034179688 266.1830444335938 166.1835021972656 266.9774475097656 166.1835021972656 C 267.9837646484375 166.1835021972656 268.9824829101563 165.6339416503906 269.4602355957031 164.5947113037109 L 272.9364624023438 157.0065460205078 C 281.78662109375 155.3928527832031 288.5531616210938 147.6197662353516 288.5531616210938 138.3235321044922 L 288.5531616210938 119.0991363525391 C 288.5531616210938 108.6448059082031 279.9985046386719 100.093017578125 269.5489196777344 100.093017578125 L 227.1682739257813 100.093017578125 M 227.1682739257813 98.093017578125 L 269.5489196777344 98.093017578125 C 272.3727416992188 98.093017578125 275.1181335449219 98.651123046875 277.7088317871094 99.7518310546875 C 280.2069702148438 100.8132171630859 282.4527587890625 102.3304748535156 284.3838195800781 104.2614593505859 C 286.3150024414063 106.1925964355469 287.8324584960938 108.4385375976563 288.8939514160156 110.9369049072266 C 289.9949340820313 113.5281524658203 290.5531616210938 116.2743072509766 290.5531616210938 119.0991363525391 L 290.5531616210938 138.3235321044922 C 290.5531616210938 140.8365478515625 290.1080932617188 143.2980651855469 289.2303466796875 145.6396789550781 C 288.3836364746094 147.8984832763672 287.1589965820313 149.9838409423828 285.5904541015625 151.8377838134766 C 282.6636962890625 155.2970886230469 278.6983642578125 157.7273559570313 274.33447265625 158.7568969726563 L 271.2785034179688 165.4276885986328 C 270.8838806152344 166.2861022949219 270.2567443847656 166.9960021972656 269.4637756347656 167.4830322265625 C 268.7176818847656 167.9412841796875 267.85791015625 168.1835021972656 266.9774475097656 168.1835021972656 C 265.508056640625 168.1835021972656 264.149169921875 167.5146179199219 263.2492370605469 166.3484039306641 L 257.8246459960938 159.3277587890625 L 227.1682739257813 159.3277587890625 C 224.3447265625 159.3277587890625 221.5994873046875 158.7696075439453 219.0088500976563 157.6687927246094 C 216.5108947753906 156.6073913574219 214.2652282714844 155.0901336669922 212.334228515625 153.1591949462891 C 210.4031066894531 151.2281494140625 208.8857421875 148.982421875 207.82421875 146.4843444824219 C 206.7232360839844 143.8934020996094 206.1650085449219 141.147705078125 206.1650085449219 138.3235321044922 L 206.1650085449219 119.0991363525391 C 206.1650085449219 116.2743225097656 206.7232360839844 113.5281677246094 207.8241882324219 110.9369201660156 C 208.8856811523438 108.4385681152344 210.403076171875 106.192626953125 212.3341979980469 104.2614898681641 C 214.2651672363281 102.3305053710938 216.5108642578125 100.8132476806641 219.0088806152344 99.75184631347656 C 221.5994567871094 98.65113830566406 224.3446655273438 98.093017578125 227.1682739257813 98.093017578125 Z"/></g><path class="g" d="M118.886,210.22v14.134a14.015,14.015,0,0,0,11.481,13.736l2.556,5.579a2,2,0,0,0,3.4.391l4.43-5.733h23.259a14.014,14.014,0,0,0,13.972-13.972V210.22a14.014,14.014,0,0,0-13.972-13.973H132.857A14.014,14.014,0,0,0,118.886,210.22Z" transform="translate(-118.886 -104.596)"/><g transform="translate(10.165 7.781)"><path class="w" d="M142.046,216.92c-4.773-.638-6.852-6.638-4.345-10.68a4.392,4.392,0,0,1,5.965-1.43c2.11,1.246,2.445,3.782,3.456,5.84.923,1.877,2.15,3.752,4.5,3.458,2.675-.334,4.723-2.548,7.295-3.222,5.269-1.382,7.822,4.565,6.827,8.965-.885,3.916-4.128,8.648-8.167,5.1-1.307-1.148-2.356-2.641-4.254-2.723-2.331-.1-4.626,1.658-6.463,2.866-3.312,2.179-9.2,7.09-13.112,3.577-3.371-3.025-.837-9.051,3.834-7.33,2.574.949,3.793,3.246,5.725,5.037a21.549,21.549,0,0,0,6.318,4.533c3.368,1.353,6.7.513,8.43-2.746,1.143-2.161,1.252-4.218,1.459-6.553a12.457,12.457,0,0,1,1.877-5.719c1.315-2.255,2.624-5,1.849-7.652-.948-3.242-5.375-4.057-8.129-2.719-3.224,1.565-5.2,6.453-8.849,6.823-3.278.334-6.36-2.372-9.737-1.13-3.005,1.106-5.461,6.26-1.648,8.14,1.641.809,3.559-.023,5.248.438s2.228,2.161,2.92,3.577c2.027,4.155,4.833,7.3,9.769,7.661,4.013.295,8.307-2.9,7.388-7.244-.472-2.229-3.711-4.762-2.356-7.059.626-1.062,1.927-1.3,2.859-2.02a5.491,5.491,0,0,0,2.15-3.67c.563-4.339-3.68-8.605-8.018-7.061-2.9,1.03-3.978,3.579-5.186,6.171-.8,1.707-1.671,3.936-3.572,4.676-1.519.592-3.092-.2-4.55-.684-1.981-.661-4.355-1.168-6.323-.154-4.653,2.392-2.941,10.28,2.531,9.681,2.9-.316,5.367-2.555,7.747-4.079a15.777,15.777,0,0,1,7.6-2.744c3.543-.181,8.275,2.059,7.744,6.291-.824,6.554-9.5,6.482-13.553,3.388-3.761-2.872-6.074-7.133-4.95-11.94,1.051-4.5,5.741-6.167,9.924-5.481a6.02,6.02,0,0,1,5.007,6.169c-.2,2.6-2.6,5.771-5.516,5.242s-3.583-4.508-1.4-6.294c2.547-2.085,6.211.056,8.82.866,1.792.556,3.471.751,5.031-.5a5.138,5.138,0,0,0,1.525-5.46c-1.708-5.133-7.512-6.66-12.165-5.031-5.424,1.9-12.967,5.961-14.268,12.15a5.888,5.888,0,0,0,1.787,5.628c1.679,1.39,4.2,1.17,6.262,1.166,3.272-.006,9.287,2.429,5.156,6.106-4.074,3.627-12.062,4.477-17.047,2.591-5.886-2.226-7.468-10.812-4.256-15.756,2.895-4.455,9.747-7.181,13.793-2.439,2.432,2.848,2.113,7.6-2.137,8.28-3.982.633-7.136-3.716-7.605-7.268-.525-3.979,2.508-7.577,5.931-9.148a8.439,8.439,0,0,1,5.692-.744c3.1.779,2.835,1.887,4.419,4.325" transform="translate(-129.551 -112.715)"/><path class="w" d="M234.675,120.066c1.913-2.528,1.853-4.087,4.565-6.016,3.685-2.622,8.569-4.589,13.158-4.3,9.328.592,16.432,11.276,15.929,20.024-.517,8.992-8.545,17.617-17.615,18.554-9.153.946-15.314-7.75-17.191-15.735-2.22-9.443,2.437-18.444,11.957-21.1,8.911-2.487,19.545,1.172,23.515,9.87,8.527,18.679-18.426,36.572-32.764,22.232-6.892-6.894-7.239-19.5-1.433-27.168,5.916-7.81,17.64-10.48,26.412-6,8.477,4.328,12.326,15.868,7.276,24.156-5.51,9.043-19.227,17.528-29.559,11.242-9.008-5.482-9.836-19.195-3.451-26.851,6.622-7.941,20.667-9.308,28.275-1.874,7.4,7.227,4.757,20.567-3.34,26.192-8.309,5.77-20.524,5.868-25.737-3.817-5.152-9.568-1.975-23.141,8.833-26.982,9.552-3.393,22.057,1.649,23.9,12.317,1.824,10.541-7.667,21.156-17.835,22.763-10.78,1.7-16.48-9.364-16.01-18.59.274-5.372-.213-8.571,3.455-12.236" transform="translate(-134.289 -108.256)"/><path class="w" d="M231.242,121.667c-7.718,11.55-6,28.315-5.25,41.463.638,11.209,3.7,40.633-14.448,40.037-8.379-.275-10.309-14.355-1.232-15.219,4.055-.386,8.089,3.688,9.535,7.153a11.163,11.163,0,0,1-1,10.887c-5.352,7.48-17.533,9.466-25.9,7.3-8.266-2.138-14.862-7.636-22.709-10.642-3.493-1.339-8.325-3.137-12.073-3.007" transform="translate(-130.891 -108.884)"/></g></g><g transform="translate(334.729 303.482)"><g transform="translate(53.405 29.28)"><path class="x" d="M432.821,423.137c-3.021-3.152-6.153-8.325-8.975-12.608a148.171,148.171,0,0,1-14.606-28.638c-2.722-7.146-4.568-16.025-3.219-23.692.648-3.683,2.629-9.1,6.485-10.553,9.384-3.531,16.8,15.9,18.422,22.05a129.2,129.2,0,0,1,1.893,53.441Z" transform="translate(-405.567 -347.221)"/><path class="y" d="M422.827,352.5l-.178-.333c-.058.033-5.569,3.042-8.147,7.575-1.24-7.287-1.793-11.953-1.809-12.1l-.375.044c.017.141.564,4.765,1.791,11.994-3.59-4.318-6.815-5.517-6.957-5.566l-.126.355c.033.011,3.528,1.307,7.212,5.961.876,5.088,2.077,11.381,3.653,18.272a49.118,49.118,0,0,0-12.121-12.427l-.2.316a49.176,49.176,0,0,1,12.539,13.084l.013.021c1.213,5.231,2.642,10.784,4.3,16.4-6.787-8.472-11.831-11.243-11.882-11.27l-.177.331c.052.028,5.314,2.915,12.343,11.9l0,0c1.31,4.36,2.76,8.749,4.365,13.048-5.42-6.649-8.668-8.905-8.7-8.929l-.213.312c.034.023,3.521,2.445,9.333,9.738,1.574,4.133,3.288,8.171,5.155,12l.338-.164c-1.864-3.83-3.578-7.864-5.149-11.993.324-6.34,6.938-12.9,7-12.965l-.263-.269c-.066.064-6.249,6.2-7.042,12.429-1.65-4.4-3.143-8.9-4.485-13.368,1.9-8.789,10.473-13.874,10.56-13.925l-.19-.326c-.087.05-8.388,4.974-10.584,13.532-1.695-5.71-3.146-11.358-4.377-16.671,1.031-6.346,11.415-12.93,11.521-13l-.2-.317c-.42.261-9.821,6.227-11.521,12.46-1.581-6.911-2.785-13.223-3.662-18.323C417.01,355.672,422.768,352.529,422.827,352.5Z" transform="translate(-405.567 -347.241)"/></g><g transform="translate(10.033 82.506)"><path class="x" d="M433.838,435.232c-4.311.682-10.347.3-15.474.177a148.134,148.134,0,0,1-31.855-4.345c-7.422-1.84-15.766-5.393-21.294-10.873-2.655-2.633-5.974-7.354-4.966-11.347,2.454-9.721,22.642-4.731,28.618-2.549a129.234,129.234,0,0,1,44.97,28.936Z" transform="translate(-360.065 -403.062)"/><path class="y" d="M370.111,403.126l-.376-.043c-.007.065-.68,6.31,1.573,11.014-6.691-3.141-10.84-5.349-10.965-5.417l-.178.332c.126.067,4.234,2.255,10.872,5.372-5.594.485-8.419,2.451-8.541,2.538l.219.307c.03-.023,3.085-2.153,9.01-2.525,4.678,2.186,10.532,4.79,17.09,7.427a49.206,49.206,0,0,0-17.121,2.863l.145.348a49.168,49.168,0,0,1,17.9-2.832h.026c4.988,1.987,10.364,3.983,15.925,5.823-10.831.74-15.984,3.3-16.036,3.327l.17.336c.053-.027,5.426-2.7,16.817-3.348l.007,0c4.328,1.414,8.76,2.724,13.205,3.859-8.551.659-12.256,2.037-12.295,2.051l.132.354c.041-.016,4.017-1.5,13.325-2.11,4.291,1.067,8.586,1.962,12.8,2.616l.057-.37c-4.211-.655-8.5-1.552-12.788-2.616-5.022-3.884-6.637-13.056-6.652-13.148l-.37.064c.014.089,1.525,8.667,6.189,12.873-4.556-1.156-9.1-2.5-13.537-3.944-6.135-6.572-5.419-16.518-5.412-16.617l-.375-.031c-.009.1-.7,9.727,5.074,16.414-5.656-1.867-11.122-3.9-16.188-5.918-4.623-4.466-4.106-16.753-4.1-16.878l-.376-.017c-.024.494-.489,11.618,3.661,16.57-6.578-2.646-12.449-5.258-17.138-7.445C369.4,409.714,370.1,403.192,370.111,403.126Z" transform="translate(-360.07 -403.063)"/></g><g transform="translate(0 25.582)"><path class="z" d="M382.3,404.288a46.685,46.685,0,0,0-8.775-1.194s26.323,26.156,55.3,30.548l-.731-2.021-23.6-20.427Z" transform="translate(-350.662 -346.139)"/><path class="x" d="M434.069,432.863c-1.768-2.338-9.756-4.914-12.822-6.519a330.274,330.274,0,0,1-29.241-17.077c-15.289-10.116-33.039-25.192-40.011-42.667-2.576-6.458-4.908-18.243,2.823-22.256,5.777-3,13.368,1.364,18.157,4.641,12.59,8.613,22.251,20.927,31.277,33.034,10.377,13.914,19.513,28.894,28.672,43.707Z" transform="translate(-349.538 -343.341)"/><path class="y" d="M417,415.082c-6.381-13.822-6.425-24.766-6.425-24.876h-.557c0,.107.039,10.555,5.951,23.945q-7.486-6.794-14.072-13.206c-6.827-19.54-4.813-28.486-4.792-28.575l-.542-.132c-.085.359-2.005,8.858,4.451,27.845-5.786-5.643-11.041-11.012-15.77-16.026-6.976-17.538-4.514-29.075-4.487-29.19l-.543-.122c-.025.113-2.4,11.247,4.022,28.241-5.853-6.242-10.87-11.907-15.066-16.835-6.848-12.825-4.621-21.646-4.6-21.734l-.537-.145c-.024.086-2.072,8.159,3.6,20.062-9.653-11.468-14.48-18.471-14.591-18.633l-.459.314c.114.167,5.264,7.639,15.568,19.792-2.881-1.011-11.608-3.783-17.178-2.355l.137.538c6.368-1.632,17.432,2.548,17.77,2.676,4.178,4.9,9.164,10.528,14.97,16.721-3.055-1.332-11.22-4.027-22.275-1.036l.144.537c13.862-3.75,23.076,1.564,23.168,1.619l.043.026c4.67,4.948,9.85,10.242,15.545,15.8-2.767-.979-9.774-2.665-20.11.305l.152.535c13.294-3.82,20.94.156,21.016.2l.009,0q6.135,5.959,13.059,12.283c-2.3-.751-6.664-1.21-14.73.387l.11.544c10.806-2.138,14.774-.515,16.037.358q7.894,7.149,16.788,14.638l.357-.426Q424.618,421.984,417,415.082Z" transform="translate(-349.606 -343.384)"/><path class="z" d="M410.815,387.127s12.469,11.747,19.921,26.5l5.057,14.153s-18.682-29.883-22.4-34.973Z" transform="translate(-352.408 -345.391)"/></g><path class="z" d="M420.2,349.127a34.611,34.611,0,0,1,7.3,9.031l8.082,61.879-7.654-14.191S418.049,378.694,420.2,349.127Z" transform="translate(-352.833 -318.03)"/><g transform="translate(72.289)"><path class="x" d="M437.333,431.644c-2.6-5.9-4.327-14.668-6.081-22.042a219.228,219.228,0,0,1-5.789-47.147c-.163-11.3,1.768-24.554,7.52-34.516,2.761-4.785,8.255-11.305,14.342-11.37,14.815-.154,15.284,30.57,14.416,39.929-2.354,25.4-11.49,52.909-24.408,75.146Z" transform="translate(-425.383 -316.505)"/><path class="y" d="M459.2,328.495l-.078-.55c-.1.014-9.27,1.4-15.142,6.394,1.965-10.745,3.558-17.5,3.609-17.708l-.541-.129c-.049.2-1.628,6.9-3.582,17.555-2.8-7.809-6.672-11.106-6.842-11.247l-.356.427c.043.035,4.238,3.6,7,11.924-1.357,7.509-2.873,16.852-4.172,27.215-3.9-14.619-10.474-23.3-10.542-23.383l-.441.338c.07.09,6.973,9.2,10.788,24.506l.009.034c-.962,7.876-1.789,16.308-2.322,24.946-5.138-15.2-10.736-21.593-10.793-21.659l-.416.371c.058.065,5.9,6.734,11.114,22.765l0,.01c-.387,6.714-.593,13.542-.54,20.32-4.161-11.971-7.526-16.747-7.562-16.8l-.452.324c.036.051,3.652,5.175,8.03,18.244.093,6.531.43,13.005,1.081,19.272l.553-.057c-.65-6.26-.987-12.729-1.079-19.254,3.658-8.639,16.157-14.4,16.283-14.457l-.231-.505c-.122.055-11.813,5.443-16.064,13.691-.065-6.944.14-13.944.539-20.825,7.077-11.242,21.559-13.965,21.7-13.991l-.1-.546c-.145.026-14.16,2.659-21.538,13.431.536-8.785,1.377-17.361,2.357-25.36,4.643-8.286,22.39-12.174,22.57-12.212l-.116-.544c-.714.152-16.781,3.677-22.295,11.47,1.3-10.4,2.821-19.768,4.184-27.289C449.525,329.96,459.109,328.508,459.2,328.495Z" transform="translate(-425.379 -316.502)"/></g><line class="d" x1="90.178" transform="translate(22.083 114.956)"/></g><g transform="translate(59.517 61.982)"><path class="aa" d="M131.892,114.771a8.621,8.621,0,0,0-13.821-6.886,10.908,10.908,0,0,0-9.889-6.316c-.046,0-.089.007-.133.008a18.162,18.162,0,0,0-35.58.031c-.249-.017-.5-.038-.749-.038a10.917,10.917,0,0,0,0,21.833H123.26A8.632,8.632,0,0,0,131.892,114.771Z" transform="translate(-60.804 -64.258)"/><path class="aa" d="M169.563,70.65a5.392,5.392,0,0,0-1.915.355,11.872,11.872,0,0,0-22.071-.715A6.475,6.475,0,1,0,141.161,81.5h28.4a5.424,5.424,0,0,0,0-10.847Z" transform="translate(-64.264 -63.136)"/></g></g></g></svg>