<svg xmlns="http://www.w3.org/2000/svg" width="16.702" height="18.201" viewBox="0 0 16.702 18.201"><defs><style>.a{fill:#78dbdb;}</style></defs><g transform="translate(0 1)"><g transform="translate(0 -1)"><path class="a" d="M34.4,12.875a2.714,2.714,0,0,0-1.823.7l-6.611-3.8a2.491,2.491,0,0,0,0-1.279l6.541-3.76a2.786,2.786,0,0,0,4.676-2,2.784,2.784,0,0,0-5.567,0,2.658,2.658,0,0,0,.084.64l-6.541,3.76a2.741,2.741,0,1,0,0,4l6.611,3.8a2.548,2.548,0,0,0-.074.6,2.705,2.705,0,1,0,2.7-2.663Z" transform="translate(-20.48 -0.001)"/></g></g></svg>